<?xml version="1.0" standalone="no"?>
<!DOCTYPE svg PUBLIC "-//W3C//DTD SVG 20010904//EN"
 "http://www.w3.org/TR/2001/REC-SVG-20010904/DTD/svg10.dtd">
<svg version="1.0" xmlns="http://www.w3.org/2000/svg"
 width="300.000000pt" height="146.000000pt" viewBox="0 0 300.000000 146.000000"
 preserveAspectRatio="xMidYMid meet">
<metadata>
Created by potrace 1.10, written by Peter Selinger 2001-2011
</metadata>
<g transform="translate(0.000000,146.000000) scale(0.100000,-0.100000)"
fill="#000000" stroke="none">
<path d="M240 810 l0 -470 98 0 97 0 -3 167 c-2 93 -2 197 0 233 l3 65 26 -55
c14 -30 67 -131 118 -223 50 -93 91 -173 91 -178 0 -5 31 -9 69 -9 l68 0 64
145 c35 80 66 145 69 145 3 0 12 -18 20 -39 8 -22 35 -88 60 -146 l45 -105 68
2 69 3 122 235 c67 129 135 255 150 278 15 24 26 45 24 45 -2 1 -53 1 -113 -1
l-110 -3 -63 -138 c-34 -77 -62 -144 -62 -150 0 -6 -4 -11 -10 -11 -5 0 -10 4
-10 9 0 6 -28 73 -62 150 l-62 141 -67 0 -68 0 -26 -57 c-14 -32 -43 -96 -62
-143 -20 -47 -39 -88 -42 -92 -3 -4 -36 59 -72 140 l-65 147 -88 3 -87 3 3
189 3 190 -97 0 -98 0 0 -470z m152 264 l3 -166 28 -24 c23 -19 39 -24 86 -24
35 0 63 -5 68 -12 6 -7 32 -61 58 -120 85 -189 110 -192 191 -20 30 64 58 124
63 132 12 23 74 25 93 3 8 -10 35 -62 58 -116 47 -109 73 -147 99 -147 28 0
47 28 100 143 26 59 54 113 61 122 8 10 30 15 66 15 68 0 69 -10 13 -105 -22
-39 -77 -136 -121 -217 -63 -117 -85 -149 -104 -154 -47 -12 -67 8 -114 117
-25 56 -53 113 -63 126 -41 52 -77 20 -140 -122 -30 -69 -52 -105 -70 -115
-48 -27 -66 -7 -177 197 -128 238 -136 246 -175 203 -16 -18 -19 -44 -23 -210
-5 -187 -5 -190 -27 -196 -12 -3 -36 -4 -51 -2 l-29 3 -3 415 c-1 228 0 421 3
427 3 8 24 13 54 13 l50 0 3 -166z"/>
<path d="M2210 1246 c-81 -21 -167 -89 -189 -149 -29 -77 -6 -166 60 -228 l49
-47 -31 -12 c-16 -7 -45 -30 -63 -51 -18 -22 -36 -39 -39 -39 -3 0 -8 13 -12
29 -10 46 -77 115 -137 142 -75 33 -203 33 -270 0 -104 -50 -172 -160 -173
-276 0 -118 62 -207 182 -262 49 -23 65 -25 146 -21 64 3 106 11 138 25 46 20
119 86 119 107 0 6 -30 26 -65 45 l-66 34 -22 -20 c-35 -32 -62 -43 -109 -43
-51 0 -104 29 -118 66 -21 55 -25 54 174 54 l183 0 6 -41 c8 -58 55 -129 111
-167 71 -48 142 -65 245 -60 240 12 376 189 287 373 -24 47 -77 101 -120 119
-7 3 -4 9 7 16 86 55 123 189 77 280 -54 106 -228 165 -370 126z m228 -56 c83
-37 122 -88 122 -160 0 -52 -18 -94 -64 -148 -20 -24 -36 -48 -36 -54 0 -6 24
-33 54 -60 63 -57 86 -106 86 -181 0 -83 -40 -136 -140 -185 -49 -24 -67 -27
-155 -27 -89 0 -106 3 -157 28 -72 36 -124 92 -133 146 -4 22 -15 51 -25 63
-17 22 -26 23 -192 26 -165 3 -175 2 -201 -18 -35 -28 -36 -72 -3 -115 52 -68
147 -84 230 -40 44 23 49 24 76 10 38 -20 31 -36 -33 -71 -68 -37 -184 -45
-254 -19 -175 67 -230 290 -102 412 53 50 123 77 199 78 113 0 164 -30 258
-154 13 -17 28 -31 33 -31 17 0 149 121 149 137 0 9 -18 38 -40 64 -46 55 -60
86 -60 137 0 77 70 151 167 178 62 18 160 11 221 -16z"/>
<path d="M2265 1135 c-22 -8 -41 -15 -42 -15 -1 0 -14 -17 -28 -37 -49 -73
-24 -164 58 -206 98 -50 216 54 187 164 -10 38 -69 99 -95 99 -7 0 -19 2 -27
5 -7 2 -31 -2 -53 -10z m113 -59 c14 -13 26 -40 29 -64 5 -37 2 -45 -30 -77
-39 -39 -70 -44 -117 -20 -37 19 -50 43 -50 90 0 48 15 74 53 91 40 18 85 10
115 -20z"/>
<path d="M1634 811 c-40 -24 -69 -83 -54 -111 17 -32 44 -40 137 -40 76 0 92
3 111 20 33 31 28 66 -17 111 -35 36 -43 39 -92 39 -35 0 -65 -7 -85 -19z
m157 -50 c53 -54 43 -61 -81 -61 -60 0 -110 2 -110 5 0 15 32 65 47 74 10 6
40 11 66 11 41 0 53 -5 78 -29z"/>
<path d="M2232 750 c-107 -66 -94 -231 22 -275 62 -24 110 -14 157 34 44 44
57 94 40 153 -28 93 -138 137 -219 88z m131 -31 c54 -25 76 -122 37 -171 -62
-79 -188 -49 -206 48 -17 94 79 164 169 123z"/>
<path d="M2730 567 c-46 -16 -80 -68 -80 -123 0 -36 6 -49 35 -79 31 -30 42
-35 85 -35 37 0 55 6 79 25 35 30 55 83 46 125 -7 31 -66 90 -90 90 -7 0 -19
2 -27 4 -7 3 -29 0 -48 -7z m92 -51 c44 -33 42 -98 -4 -130 -53 -37 -128 0
-128 64 0 62 83 104 132 66z"/>
</g>
</svg>
